<?xml version="1.0" encoding="UTF-8" standalone="no"?> <svg id="Layer_2" data-name="Layer 2" xmlns="http://www.w3.org/2000/svg" xmlns:xlink="http://www.w3.org/1999/xlink" viewBox="0 0 64 64"><defs><style>.cls-1{fill:url(#linear-gradient);}</style><linearGradient id="linear-gradient" x1="14.67" y1="32" x2="49.33" y2="32" gradientUnits="userSpaceOnUse"><stop offset="0" stop-color="#f62c84"/><stop offset="0.23" stop-color="#e1309c"/><stop offset="0.72" stop-color="#ab38d9"/><stop offset="1" stop-color="#8a3eff"/></linearGradient></defs><path class="cls-1" d="M20.33,61a5.67,5.67,0,0,1-4-9.67L35.65,32,16.33,12.67a5.66,5.66,0,0,1,8-8L47.67,28a5.68,5.68,0,0,1,0,8L24.34,59.34A5.63,5.63,0,0,1,20.33,61Zm0-56a3.67,3.67,0,0,0-2.59,6.26l20,20a1,1,0,0,1,0,1.42l-20,20a3.68,3.68,0,0,0,0,5.19,3.77,3.77,0,0,0,5.19,0L46.26,34.59a3.66,3.66,0,0,0,0-5.18L22.93,6.07A3.7,3.7,0,0,0,20.33,5Z"/></svg>